<svg viewBox="0 0 200 200" xmlns="http://www.w3.org/2000/svg">
  <!-- Outer gold ring -->
  <circle cx="100" cy="100" r="95" fill="none" stroke="#a68b2f" stroke-width="8"/>
  
  <!-- Inner dark circle -->
  <circle cx="100" cy="100" r="88" fill="#2a2a2a"/>
  
  <!-- Olive green background with contour lines -->
  <circle cx="100" cy="100" r="85" fill="#5a7c3e"/>
  <path d="M 30 70 Q 100 60 170 75" fill="none" stroke="#4a6c2e" stroke-width="1.5" opacity="0.6"/>
  <path d="M 25 85 Q 100 75 175 90" fill="none" stroke="#4a6c2e" stroke-width="1.5" opacity="0.6"/>
  <path d="M 28 100 Q 100 90 172 105" fill="none" stroke="#4a6c2e" stroke-width="1.5" opacity="0.6"/>
  <path d="M 32 115 Q 100 105 168 120" fill="none" stroke="#4a6c2e" stroke-width="1.5" opacity="0.6"/>
  <path d="M 35 130 Q 100 120 165 135" fill="none" stroke="#4a6c2e" stroke-width="1.5" opacity="0.6"/>
  
  <!-- Orange A background -->
  <path d="M 70 55 L 90 55 L 130 145 L 110 145 L 100 120 L 80 120 L 70 145 L 50 145 Z" fill="#ff8c42"/>
  
  <!-- Crosshair/scope -->
  <g stroke="#111111" stroke-width="2.5" fill="none">
    <!-- Vertical line -->
    <line x1="100" y1="65" x2="100" y2="135"/>
    <!-- Horizontal line -->
    <line x1="65" y1="100" x2="135" y2="100"/>
    <!-- Circle -->
    <circle cx="100" cy="100" r="20"/>
  </g>
</svg>
